<?xml version="1.0" encoding="UTF-8" standalone="no"?>
<svg width="42px" height="42px" viewBox="0 0 42 42" version="1.1" xmlns="http://www.w3.org/2000/svg" xmlns:xlink="http://www.w3.org/1999/xlink">
    <!-- Generator: Sketch 3.8.3 (29802) - http://www.bohemiancoding.com/sketch -->
    <title>train1</title>
    <desc>Created with Sketch.</desc>
    <defs></defs>
    <g id="Page-1" stroke="none" stroke-width="1" fill="none" fill-rule="evenodd">
        <g id="train1" transform="translate(1.000000, 1.000000)">
            <circle id="Oval-1" stroke="#000000" fill="#FFFFFF" cx="20" cy="20" r="20"></circle>
            <path d="M10.3224271,18.9479446 L10.3224271,10.3913541 L9.81082689,10.3913541 C9.49851279,10.3913541 9.14356534,10.4965538 8.88776522,10.6986206 C8.70335118,10.844442 8.57644259,11.0392177 8.57644259,11.2787814 L8.57644259,11.414187 L8.89371406,11.414187 C9.15843744,11.414187 9.3755701,11.6433349 9.3755701,11.9214371 L9.3755701,15.8200759 C9.3755701,16.0981781 9.15843744,16.327326 8.89371406,16.327326 L8.57644259,16.327326 L8.57644259,17.1460089 C8.57644259,17.5730573 8.72516359,18.0896816 8.98691255,18.4709004 C9.18322427,18.7510857 9.43902439,18.9479446 9.73745786,18.9479446 L10.3224271,18.9479446 L10.3224271,18.9479446 Z M28.7519334,10.3913541 L28.7519334,18.9479446 L29.2625421,18.9479446 C29.5599841,18.9479446 29.8177672,18.7510857 30.012096,18.4709004 C30.2758279,18.0896816 30.4225659,17.5730573 30.4225659,17.1460089 L30.4225659,16.327326 L30.1072774,16.327326 C29.8405711,16.327326 29.6254214,16.0981781 29.6254214,15.8200759 L29.6254214,11.9214371 C29.6254214,11.6433349 29.8405711,11.414187 30.1072774,11.414187 L30.4225659,11.414187 L30.4225659,11.2787814 C30.4225659,11.0392177 30.2956573,10.844442 30.1122348,10.6986206 C29.8584176,10.4965538 29.5034702,10.3913541 29.1891731,10.3913541 L28.7519334,10.3913541 L28.7519334,10.3913541 Z M11.6014277,22.0956033 L11.6014277,25.2151393 L16.5002974,25.2151393 L16.5002974,23.1882221 C14.8931192,22.4362004 13.2571882,22.1195597 11.6014277,22.0956033 L11.6014277,22.0956033 Z M27.6751933,22.0956033 C26.0204244,22.1195597 24.3844934,22.4362004 22.7763236,23.1882221 L22.7763236,25.2151393 L27.6751933,25.2151393 L27.6751933,22.0956033 L27.6751933,22.0956033 Z M17.7148523,28.0607395 L21.5746579,28.0607395 L21.5746579,27.3597553 L17.7148523,27.3597553 L17.7148523,28.0607395 Z M17.7148523,26.2369306 L17.7148523,26.9379148 L21.5746579,26.9379148 L21.5746579,26.2369306 L17.7148523,26.2369306 L17.7148523,26.2369306 Z M17.7148523,25.114106 L17.7148523,25.8150902 L21.5746579,25.8150902 L21.5746579,25.114106 L17.7148523,25.114106 L17.7148523,25.114106 Z M17.7148523,23.9912813 L17.7148523,24.6912239 L21.5746579,24.6912239 L21.5746579,23.9912813 L17.7148523,23.9912813 L17.7148523,23.9912813 Z M17.7148523,22.4466162 L21.5746579,22.4466162 L21.5746579,21.745632 L17.7148523,21.745632 L17.7148523,22.4466162 Z M17.7148523,22.8674151 L17.7148523,23.5694409 L21.5746579,23.5694409 L21.5746579,22.8674151 L17.7148523,22.8674151 L17.7148523,22.8674151 Z M13.0023795,25.9942422 C12.6335515,25.9942422 12.3341265,26.3087997 12.3341265,26.696268 C12.3341265,27.0837362 12.6335515,27.3972522 13.0023795,27.3972522 C13.3721991,27.3972522 13.6706326,27.0837362 13.6706326,26.696268 C13.6706326,26.3087997 13.3721991,25.9942422 13.0023795,25.9942422 L13.0023795,25.9942422 Z M26.1294864,25.9942422 C25.7586754,25.9942422 25.4612334,26.3087997 25.4612334,26.696268 C25.4612334,27.0837362 25.7586754,27.3972522 26.1294864,27.3972522 C26.4963315,27.3972522 26.796748,27.0837362 26.796748,26.696268 C26.796748,26.3087997 26.4963315,25.9942422 26.1294864,25.9942422 L26.1294864,25.9942422 Z M11.5647432,11.2204528 L11.5647432,20.6144747 L27.7426135,20.6144747 L27.7426135,11.2204528 C22.3242118,10.0653392 16.9305969,10.0288838 11.5647432,11.2204528 L11.5647432,11.2204528 Z M11.3624826,8.17174435 C16.3902439,6.5135469 21.8899465,6.70832261 27.7108864,8.17174435 C28.2671029,8.31235782 28.7519334,8.66441231 28.7519334,9.26540472 L28.7519334,9.71015994 L29.1891731,9.71015994 C29.6264128,9.71015994 30.1300813,9.86431398 30.5008923,10.1559567 C30.8379933,10.42156 31.071981,10.7986124 31.071981,11.2787814 L31.071981,11.414187 L31.518144,11.414187 C31.7828673,11.414187 32,11.6433349 32,11.9214371 L32,15.8200759 C32,16.0981781 31.7828673,16.327326 31.518144,16.327326 L31.071981,16.327326 L31.071981,17.1460089 C31.071981,17.7011718 30.8786437,18.3740333 30.5365854,18.8687844 C30.2272457,19.3166644 29.7959548,19.6301804 29.2625421,19.6301804 L28.7519334,19.6301804 L28.7519334,28.3128022 C28.7519334,28.9148362 28.2829665,29.4064625 27.7108864,29.4064625 L27.0743605,29.4064625 L27.0743605,32 L24.473726,32 L24.473726,29.4064625 L14.2615507,29.4064625 L14.2615507,32 L11.6619076,32 L11.6619076,29.4064625 L11.3624826,29.4064625 C10.7904025,29.4064625 10.3224271,28.9148362 10.3224271,28.3128022 L10.3224271,19.6301804 L9.73745786,19.6301804 C9.20503668,19.6301804 8.77176284,19.3166644 8.46341463,18.8687844 C8.12036486,18.3740333 7.92801904,17.7011718 7.92801904,17.1460089 L7.92801904,16.327326 L7.48284751,16.327326 C7.21713266,16.327326 7,16.0981781 7,15.8200759 L7,11.9214371 C7,11.6433349 7.21713266,11.414187 7.48284751,11.414187 L7.92801904,11.414187 L7.92801904,11.2787814 C7.92801904,10.7986124 8.16101527,10.42156 8.49910767,10.1559567 C8.8699187,9.86431398 9.37457862,9.71015994 9.81082689,9.71015994 L10.3224271,9.71015994 L10.3224271,9.26540472 C10.3224271,8.66441231 10.8161808,8.35193791 11.3624826,8.17174435 L11.3624826,8.17174435 Z" id="Fill-168" fill="#1A1918"></path>
        </g>
    </g>
</svg>