<?xml version="1.0" encoding="UTF-8" standalone="no"?>
<svg width="26px" height="25px" viewBox="0 0 26 25" version="1.1" xmlns="http://www.w3.org/2000/svg" xmlns:xlink="http://www.w3.org/1999/xlink">
    <!-- Generator: Sketch 3.8.3 (29802) - http://www.bohemiancoding.com/sketch -->
    <title>Fill 168</title>
    <desc>Created with Sketch.</desc>
    <defs></defs>
    <g id="Page-1" stroke="none" stroke-width="1" fill="none" fill-rule="evenodd">
        <g id="shutterstock_116575033" transform="translate(-240.000000, -193.000000)" fill="#1A1918">
            <path d="M243.606,204.765 L243.606,196.55 L243.09,196.55 C242.775,196.55 242.417,196.651 242.159,196.845 C241.973,196.985 241.845,197.172 241.845,197.402 L241.845,197.532 L242.165,197.532 C242.432,197.532 242.651,197.752 242.651,198.019 L242.651,201.762 C242.651,202.029 242.432,202.249 242.165,202.249 L241.845,202.249 L241.845,203.035 C241.845,203.445 241.995,203.941 242.259,204.307 C242.457,204.576 242.715,204.765 243.016,204.765 L243.606,204.765 L243.606,204.765 Z M262.194,196.55 L262.194,204.765 L262.709,204.765 C263.009,204.765 263.269,204.576 263.465,204.307 C263.731,203.941 263.879,203.445 263.879,203.035 L263.879,202.249 L263.561,202.249 C263.292,202.249 263.075,202.029 263.075,201.762 L263.075,198.019 C263.075,197.752 263.292,197.532 263.561,197.532 L263.879,197.532 L263.879,197.402 C263.879,197.172 263.751,196.985 263.566,196.845 C263.31,196.651 262.952,196.55 262.635,196.55 L262.194,196.55 L262.194,196.55 Z M244.896,207.787 L244.896,210.782 L249.837,210.782 L249.837,208.836 C248.216,208.114 246.566,207.81 244.896,207.787 L244.896,207.787 Z M261.108,207.787 C259.439,207.81 257.789,208.114 256.167,208.836 L256.167,210.782 L261.108,210.782 L261.108,207.787 L261.108,207.787 Z M251.062,213.514 L254.955,213.514 L254.955,212.841 L251.062,212.841 L251.062,213.514 Z M251.062,211.763 L251.062,212.436 L254.955,212.436 L254.955,211.763 L251.062,211.763 L251.062,211.763 Z M251.062,210.685 L251.062,211.358 L254.955,211.358 L254.955,210.685 L251.062,210.685 L251.062,210.685 Z M251.062,209.607 L251.062,210.279 L254.955,210.279 L254.955,209.607 L251.062,209.607 L251.062,209.607 Z M251.062,208.124 L254.955,208.124 L254.955,207.451 L251.062,207.451 L251.062,208.124 Z M251.062,208.528 L251.062,209.202 L254.955,209.202 L254.955,208.528 L251.062,208.528 L251.062,208.528 Z M246.309,211.53 C245.937,211.53 245.635,211.832 245.635,212.204 C245.635,212.576 245.937,212.877 246.309,212.877 C246.682,212.877 246.983,212.576 246.983,212.204 C246.983,211.832 246.682,211.53 246.309,211.53 L246.309,211.53 Z M259.549,211.53 C259.175,211.53 258.875,211.832 258.875,212.204 C258.875,212.576 259.175,212.877 259.549,212.877 C259.919,212.877 260.222,212.576 260.222,212.204 C260.222,211.832 259.919,211.53 259.549,211.53 L259.549,211.53 Z M244.859,197.346 L244.859,206.365 L261.176,206.365 L261.176,197.346 C255.711,196.237 250.271,196.202 244.859,197.346 L244.859,197.346 Z M244.655,194.419 C249.726,192.827 255.273,193.014 261.144,194.419 C261.705,194.554 262.194,194.892 262.194,195.469 L262.194,195.896 L262.635,195.896 C263.076,195.896 263.584,196.044 263.958,196.324 C264.298,196.579 264.534,196.941 264.534,197.402 L264.534,197.532 L264.984,197.532 C265.251,197.532 265.47,197.752 265.47,198.019 L265.47,201.762 C265.47,202.029 265.251,202.249 264.984,202.249 L264.534,202.249 L264.534,203.035 C264.534,203.568 264.339,204.214 263.994,204.689 C263.682,205.119 263.247,205.42 262.709,205.42 L262.194,205.42 L262.194,213.756 C262.194,214.334 261.721,214.806 261.144,214.806 L260.502,214.806 L260.502,217.296 L257.879,217.296 L257.879,214.806 L247.579,214.806 L247.579,217.296 L244.957,217.296 L244.957,214.806 L244.655,214.806 C244.078,214.806 243.606,214.334 243.606,213.756 L243.606,205.42 L243.016,205.42 C242.479,205.42 242.042,205.119 241.731,204.689 C241.385,204.214 241.191,203.568 241.191,203.035 L241.191,202.249 L240.742,202.249 C240.474,202.249 240.255,202.029 240.255,201.762 L240.255,198.019 C240.255,197.752 240.474,197.532 240.742,197.532 L241.191,197.532 L241.191,197.402 C241.191,196.941 241.426,196.579 241.767,196.324 C242.141,196.044 242.65,195.896 243.09,195.896 L243.606,195.896 L243.606,195.469 C243.606,194.892 244.104,194.592 244.655,194.419 L244.655,194.419 Z" id="Fill-168"></path>
        </g>
    </g>
</svg>