<?xml version="1.0" encoding="UTF-8" standalone="no"?>
<svg width="27px" height="27px" viewBox="0 0 27 27" version="1.1" xmlns="http://www.w3.org/2000/svg" xmlns:xlink="http://www.w3.org/1999/xlink">
    <!-- Generator: Sketch 3.8.3 (29802) - http://www.bohemiancoding.com/sketch -->
    <title>Group 2</title>
    <desc>Created with Sketch.</desc>
    <defs></defs>
    <g id="Page-1" stroke="none" stroke-width="1" fill="none" fill-rule="evenodd">
        <g id="Group-2" transform="translate(1.000000, 1.000000)">
            <g id="Group">
                <g id="bus" transform="translate(4.000000, 4.000000)" fill="#1A1918">
                    <path d="M2.31153846,7.84333333 L2.31153846,2.36666667 L1.98076923,2.36666667 C1.77884615,2.36666667 1.54935897,2.434 1.38397436,2.56333333 C1.26474359,2.65666667 1.18269231,2.78133333 1.18269231,2.93466667 L1.18269231,3.02133333 L1.38782051,3.02133333 C1.55897436,3.02133333 1.69935897,3.168 1.69935897,3.346 L1.69935897,5.84133333 C1.69935897,6.01933333 1.55897436,6.166 1.38782051,6.166 L1.18269231,6.166 L1.18269231,6.69 C1.18269231,6.96333333 1.27884615,7.294 1.44807692,7.538 C1.575,7.71733333 1.74038462,7.84333333 1.93333333,7.84333333 L2.31153846,7.84333333 L2.31153846,7.84333333 L2.31153846,7.84333333 Z M14.2269231,2.36666667 L14.2269231,7.84333333 L14.5570513,7.84333333 C14.749359,7.84333333 14.9160256,7.71733333 15.0416667,7.538 C15.2121795,7.294 15.3070513,6.96333333 15.3070513,6.69 L15.3070513,6.166 L15.1032051,6.166 C14.9307692,6.166 14.7916667,6.01933333 14.7916667,5.84133333 L14.7916667,3.346 C14.7916667,3.168 14.9307692,3.02133333 15.1032051,3.02133333 L15.3070513,3.02133333 L15.3070513,2.93466667 C15.3070513,2.78133333 15.225,2.65666667 15.1064103,2.56333333 C14.9423077,2.434 14.7128205,2.36666667 14.5096154,2.36666667 L14.2269231,2.36666667 L14.2269231,2.36666667 L14.2269231,2.36666667 Z M3.13846154,9.858 L3.13846154,11.8546667 L6.30576923,11.8546667 L6.30576923,10.5573333 C5.26666667,10.076 4.20897436,9.87333333 3.13846154,9.858 L3.13846154,9.858 L3.13846154,9.858 Z M13.5307692,9.858 C12.4608974,9.87333333 11.4032051,10.076 10.3634615,10.5573333 L10.3634615,11.8546667 L13.5307692,11.8546667 L13.5307692,9.858 L13.5307692,9.858 L13.5307692,9.858 Z M7.09102564,13.676 L9.58653846,13.676 L9.58653846,13.2273333 L7.09102564,13.2273333 L7.09102564,13.676 L7.09102564,13.676 Z M7.09102564,12.5086667 L7.09102564,12.9573333 L9.58653846,12.9573333 L9.58653846,12.5086667 L7.09102564,12.5086667 L7.09102564,12.5086667 L7.09102564,12.5086667 Z M7.09102564,11.79 L7.09102564,12.2386667 L9.58653846,12.2386667 L9.58653846,11.79 L7.09102564,11.79 L7.09102564,11.79 L7.09102564,11.79 Z M7.09102564,11.0713333 L7.09102564,11.5193333 L9.58653846,11.5193333 L9.58653846,11.0713333 L7.09102564,11.0713333 L7.09102564,11.0713333 L7.09102564,11.0713333 Z M7.09102564,10.0826667 L9.58653846,10.0826667 L9.58653846,9.634 L7.09102564,9.634 L7.09102564,10.0826667 L7.09102564,10.0826667 Z M7.09102564,10.352 L7.09102564,10.8013333 L9.58653846,10.8013333 L9.58653846,10.352 L7.09102564,10.352 L7.09102564,10.352 L7.09102564,10.352 Z M4.04423077,12.3533333 C3.80576923,12.3533333 3.61217949,12.5546667 3.61217949,12.8026667 C3.61217949,13.0506667 3.80576923,13.2513333 4.04423077,13.2513333 C4.28333333,13.2513333 4.47628205,13.0506667 4.47628205,12.8026667 C4.47628205,12.5546667 4.28333333,12.3533333 4.04423077,12.3533333 L4.04423077,12.3533333 L4.04423077,12.3533333 Z M12.5314103,12.3533333 C12.2916667,12.3533333 12.099359,12.5546667 12.099359,12.8026667 C12.099359,13.0506667 12.2916667,13.2513333 12.5314103,13.2513333 C12.7685897,13.2513333 12.9628205,13.0506667 12.9628205,12.8026667 C12.9628205,12.5546667 12.7685897,12.3533333 12.5314103,12.3533333 L12.5314103,12.3533333 L12.5314103,12.3533333 Z M3.11474359,2.89733333 L3.11474359,8.91 L13.574359,8.91 L13.574359,2.89733333 C10.0711538,2.158 6.58397436,2.13466667 3.11474359,2.89733333 L3.11474359,2.89733333 L3.11474359,2.89733333 Z M2.98397436,0.946 C6.23461538,-0.115333333 9.79038462,0.00933333333 13.5538462,0.946 C13.9134615,1.036 14.2269231,1.26133333 14.2269231,1.646 L14.2269231,1.93066667 L14.5096154,1.93066667 C14.7923077,1.93066667 15.1179487,2.02933333 15.3576923,2.216 C15.575641,2.386 15.7269231,2.62733333 15.7269231,2.93466667 L15.7269231,3.02133333 L16.0153846,3.02133333 C16.1865385,3.02133333 16.3269231,3.168 16.3269231,3.346 L16.3269231,5.84133333 C16.3269231,6.01933333 16.1865385,6.166 16.0153846,6.166 L15.7269231,6.166 L15.7269231,6.69 C15.7269231,7.04533333 15.6019231,7.476 15.3807692,7.79266667 C15.1807692,8.07933333 14.9019231,8.28 14.5570513,8.28 L14.2269231,8.28 L14.2269231,13.8373333 C14.2269231,14.2226667 13.9237179,14.5373333 13.5538462,14.5373333 L13.1423077,14.5373333 L13.1423077,16.1973333 L11.4608974,16.1973333 L11.4608974,14.5373333 L4.85833333,14.5373333 L4.85833333,16.1973333 L3.1775641,16.1973333 L3.1775641,14.5373333 L2.98397436,14.5373333 C2.61410256,14.5373333 2.31153846,14.2226667 2.31153846,13.8373333 L2.31153846,8.28 L1.93333333,8.28 C1.58910256,8.28 1.30897436,8.07933333 1.10961538,7.79266667 C0.887820513,7.476 0.763461538,7.04533333 0.763461538,6.69 L0.763461538,6.166 L0.475641026,6.166 C0.303846154,6.166 0.163461538,6.01933333 0.163461538,5.84133333 L0.163461538,3.346 C0.163461538,3.168 0.303846154,3.02133333 0.475641026,3.02133333 L0.763461538,3.02133333 L0.763461538,2.93466667 C0.763461538,2.62733333 0.914102564,2.386 1.13269231,2.216 C1.3724359,2.02933333 1.69871795,1.93066667 1.98076923,1.93066667 L2.31153846,1.93066667 L2.31153846,1.646 C2.31153846,1.26133333 2.63076923,1.06133333 2.98397436,0.946 L2.98397436,0.946 L2.98397436,0.946 Z" id="Fill-168"></path>
                </g>
                <circle id="Oval-1" stroke="#000000" cx="12.5" cy="12.5" r="12.5"></circle>
            </g>
        </g>
    </g>
</svg>