<?xml version="1.0" encoding="UTF-8" standalone="no"?>
<svg width="90px" height="90px" viewBox="0 0 90 90" version="1.1" xmlns="http://www.w3.org/2000/svg" xmlns:xlink="http://www.w3.org/1999/xlink">
    <!-- Generator: Sketch 39 (31667) - http://www.bohemiancoding.com/sketch -->
    <title>gps</title>
    <desc>Created with Sketch.</desc>
    <defs></defs>
    <g id="Page-1" stroke="none" stroke-width="1" fill="none" fill-rule="evenodd">
        <g id="gps" transform="translate(-5.000000, -5.000000)">
            <rect id="Rectangle-path" x="0" y="0" width="100" height="100"></rect>
            <circle id="Oval" fill="#000000" cx="50" cy="50" r="20"></circle>
            <path d="M90,45 L88.7,45 C86.4,27.5 72.5,13.6 55,11.3 L55,10 C55,7.2 52.8,5 50,5 C47.2,5 45,7.2 45,10 L45,11.3 C27.5,13.6 13.6,27.5 11.3,45 L10,45 C7.2,45 5,47.2 5,50 C5,52.8 7.2,55 10,55 L11.3,55 C13.6,72.5 27.5,86.4 45,88.7 L45,90 C45,92.8 47.2,95 50,95 C52.8,95 55,92.8 55,90 L55,88.7 C72.5,86.4 86.4,72.5 88.7,55 L90,55 C92.8,55 95,52.8 95,50 C95,47.2 92.8,45 90,45 L90,45 Z M55,80.6 L55,80 C55,77.2 52.8,75 50,75 C47.2,75 45,77.2 45,80 L45,80.6 C31.9,78.5 21.5,68.1 19.4,55 L20,55 C22.8,55 25,52.8 25,50 C25,47.2 22.8,45 20,45 L19.4,45 C21.5,31.9 31.9,21.5 45,19.4 L45,20 C45,22.8 47.2,25 50,25 C52.8,25 55,22.8 55,20 L55,19.4 C68.1,21.5 78.5,31.9 80.6,45 L80,45 C77.2,45 75,47.2 75,50 C75,52.8 77.2,55 80,55 L80.6,55 C78.5,68.1 68.1,78.5 55,80.6 L55,80.6 Z" id="Shape" fill="#000000"></path>
        </g>
    </g>
</svg>