<?xml version="1.0" encoding="UTF-8" standalone="no"?>
<svg width="28px" height="28px" viewBox="0 0 28 28" version="1.1" xmlns="http://www.w3.org/2000/svg" xmlns:xlink="http://www.w3.org/1999/xlink">
    <!-- Generator: Sketch 3.8.3 (29802) - http://www.bohemiancoding.com/sketch -->
    <title>Fill 6</title>
    <desc>Created with Sketch.</desc>
    <defs></defs>
    <g id="Page-1" stroke="none" stroke-width="1" fill="none" fill-rule="evenodd">
        <g id="shutterstock_246520156" transform="translate(-173.000000, -46.000000)" fill="#000000">
            <path d="M173,74 L177.863,74 C177.863,74 177.809,74.091 177.809,74.075 C177.809,71.429 176,69.406 173,69.346 L173,74 L173,74 Z M173,46.241 L173,50.241 C186,50.241 196.961,61 196.961,74 L200.961,74 C200.961,59 188,46.241 173,46.241 L173,46.241 Z M173,53.547 L173,57.547 C182,57.547 189.654,65 189.654,74 L193.654,74 C193.654,63 184,53.547 173,53.547 L173,53.547 Z M186.016,74 L182.016,74 C182.016,69 178,65.186 173,65.186 L173,61.186 C180,61.186 186.016,67 186.016,74 L186.016,74 Z" id="Fill-6"></path>
        </g>
    </g>
</svg>