<?xml version="1.0" encoding="UTF-8" standalone="no"?>
<svg width="24px" height="32px" viewBox="0 0 24 32" version="1.1" xmlns="http://www.w3.org/2000/svg" xmlns:xlink="http://www.w3.org/1999/xlink">
    <!-- Generator: Sketch 3.8.3 (29802) - http://www.bohemiancoding.com/sketch -->
    <title>Fill 15</title>
    <desc>Created with Sketch.</desc>
    <defs></defs>
    <g id="Page-1" stroke="none" stroke-width="1" fill="none" fill-rule="evenodd">
        <g id="shutterstock_246520156" transform="translate(-175.000000, -421.000000)" fill="#000000">
            <path d="M198.214,426.157 C198.616,425.128 198.108,423.967 197.079,423.566 C190.597,421.032 183.443,420.997 176.939,423.472 C175.906,423.865 175.387,425.019 175.779,426.052 C176.172,427.085 177.326,427.602 178.36,427.211 C183.936,425.092 190.067,425.121 195.623,427.291 C195.862,427.384 196.109,427.429 196.351,427.429 C197.15,427.429 197.905,426.946 198.214,426.157 L198.214,426.157 Z M196.282,433.364 C196.73,432.354 196.274,431.173 195.264,430.725 C190.027,428.402 184.003,428.365 178.738,430.626 C177.723,431.061 177.254,432.237 177.689,433.253 C178.124,434.267 179.302,434.736 180.316,434.301 C184.562,432.479 189.419,432.509 193.643,434.382 C193.906,434.499 194.182,434.554 194.453,434.554 C195.219,434.553 195.951,434.11 196.282,433.364 L196.282,433.364 Z M194.164,441.102 C194.721,440.148 194.4,438.924 193.446,438.366 C189.486,436.05 184.537,436.005 180.533,438.248 C179.569,438.788 179.225,440.007 179.765,440.97 C180.304,441.933 181.523,442.278 182.487,441.738 C185.261,440.186 188.686,440.217 191.428,441.819 C191.745,442.005 192.092,442.092 192.435,442.092 C193.123,442.092 193.792,441.738 194.164,441.102 L194.164,441.102 Z M189.807,445.683 C191.42,447.296 191.42,449.911 189.807,451.524 C188.194,453.136 185.58,453.136 183.967,451.524 C182.354,449.911 182.354,447.296 183.967,445.683 C185.58,444.071 188.194,444.071 189.807,445.683 L189.807,445.683 Z" id="Fill-15"></path>
        </g>
    </g>
</svg>