<?xml version="1.0" encoding="UTF-8" standalone="no"?>
<svg width="32px" height="32px" viewBox="0 0 32 32" version="1.1" xmlns="http://www.w3.org/2000/svg" xmlns:xlink="http://www.w3.org/1999/xlink">
    <!-- Generator: Sketch 3.8.3 (29802) - http://www.bohemiancoding.com/sketch -->
    <title>Fill 16</title>
    <desc>Created with Sketch.</desc>
    <defs></defs>
    <g id="Page-1" stroke="none" stroke-width="1" fill="none" fill-rule="evenodd">
        <g id="shutterstock_246520156" transform="translate(-54.000000, -421.000000)" fill="#000000">
            <path d="M85.43,448.027 C85.43,433.392 73.523,421.486 58.889,421.486 C57.232,421.486 55.889,422.829 55.889,424.486 C55.889,426.143 57.232,427.486 58.889,427.486 C70.215,427.486 79.43,436.701 79.43,448.027 C79.43,449.684 80.773,451.027 82.43,451.027 C84.086,451.027 85.43,449.684 85.43,448.027 L85.43,448.027 Z M74.669,448.027 C74.669,439.325 67.59,432.246 58.889,432.246 C57.232,432.246 55.889,433.588 55.889,435.246 C55.889,436.903 57.232,438.246 58.889,438.246 C64.282,438.246 68.669,442.633 68.669,448.027 C68.669,449.684 70.013,451.027 71.669,451.027 C73.326,451.027 74.669,449.684 74.669,448.027 L74.669,448.027 Z M63.75,448.027 C63.75,450.711 61.574,452.888 58.889,452.888 C56.204,452.888 54.028,450.711 54.028,448.027 C54.028,445.342 56.204,443.165 58.889,443.165 C61.574,443.165 63.75,445.342 63.75,448.027 L63.75,448.027 Z" id="Fill-16"></path>
        </g>
    </g>
</svg>