<?xml version="1.0" encoding="UTF-8" standalone="no"?>
<svg width="36px" height="32px" viewBox="0 0 36 32" version="1.1" xmlns="http://www.w3.org/2000/svg" xmlns:xlink="http://www.w3.org/1999/xlink">
    <!-- Generator: Sketch 39.1 (31720) - http://www.bohemiancoding.com/sketch -->
    <title>Fill 25</title>
    <desc>Created with Sketch.</desc>
    <defs></defs>
    <g id="Page-1" stroke="none" stroke-width="1" fill="none" fill-rule="evenodd">
        <g id="shutterstock_148044407" transform="translate(-48.000000, -132.000000)" fill="#05090F">
            <path d="M78,154.001 L84,148.001 L80.001,148.001 C80.001,139.167 72.838,132.001 64.001,132.001 C55.167,132.001 48.001,139.167 48.001,148.001 C48.001,156.835 55.167,164.001 64.001,164.001 C68.928,164.001 73.331,161.769 76.266,158.266 L73.42,155.419 C71.223,158.206 67.825,160.001 64.001,160.001 C57.376,160.001 52.001,154.626 52.001,148.001 C52.001,141.372 57.376,136.001 64.001,136.001 C70.629,136.001 76.001,141.372 76.001,148.001 L72,148.001 L78,154.001" id="Fill-25"></path>
        </g>
    </g>
</svg>