<?xml version="1.0" encoding="UTF-8" standalone="no"?>
<svg width="42px" height="42px" viewBox="0 0 42 42" version="1.1" xmlns="http://www.w3.org/2000/svg" xmlns:xlink="http://www.w3.org/1999/xlink">
    <!-- Generator: Sketch 3.8.3 (29802) - http://www.bohemiancoding.com/sketch -->
    <title>train1</title>
    <desc>Created with Sketch.</desc>
    <defs></defs>
    <g id="Page-1" stroke="none" stroke-width="1" fill="none" fill-rule="evenodd">
        <g id="train1" transform="translate(1.000000, 1.000000)">
            <circle id="Oval-1" stroke="#000000" fill="#FFFFFF" cx="20" cy="20" r="20"></circle>
            <g id="Page-1" transform="translate(8.000000, 8.000000)" fill="#1A1918">
                <path d="M3.06547619,11.85 L3.06547619,14.1770833 L7.26547619,14.1770833 L7.26547619,11.85 L3.06547619,11.85 L3.06547619,11.85 L3.06547619,11.85 Z M15.7095238,11.85 L15.7095238,14.1770833 L19.9107143,14.1770833 L19.9107143,11.85 L15.7095238,11.85 L15.7095238,11.85 L15.7095238,11.85 Z M4.38571429,1.875 C4.1,4.35 3.81428571,6.82604167 3.52857143,9.30104167 C9.18095238,11.2989583 14.6047619,11.25 19.8166667,9.30104167 C19.5011905,6.82604167 19.1869048,4.35 18.872619,1.875 L4.38571429,1.875 L4.38571429,1.875 L4.38571429,1.875 Z M17.622619,21.7364583 L6.55119048,21.7364583 L6.29166667,22.690625 L17.8821429,22.690625 L17.622619,21.7364583 L17.622619,21.7364583 L17.622619,21.7364583 Z M18.0738095,23.390625 L6.10119048,23.390625 L5.71071429,24.825 L18.4642857,24.825 L18.0738095,23.390625 L18.0738095,23.390625 L18.0738095,23.390625 Z M6.83690476,20.6958333 L6.75595238,20.9895833 L17.4190476,20.9895833 L17.3380952,20.6958333 L6.83690476,20.6958333 L6.83690476,20.6958333 L6.83690476,20.6958333 Z M4.30714286,0 L18.8583333,0 C19.847619,0 20.5380952,0.714583333 20.6583333,1.575 C21.0654762,4.4875 21.4738095,7.4 21.8809524,10.3145833 L21.8809524,17.4010417 C21.8809524,18.2520833 21.102381,18.9510417 20.1369048,18.9760417 L20.1369048,20.4020833 L23.952381,24.98125 L20.1369048,24.98125 L18.2297619,20.4020833 L18.2297619,18.9760417 L5.72261905,18.9760417 L5.72261905,20.4020833 L3.81428571,24.98125 L0,24.98125 L3.81428571,20.4020833 L3.81428571,18.9760417 L3.10833333,18.9760417 C2.11785714,18.9760417 1.30714286,18.2677083 1.30714286,17.4010417 L1.30714286,9.9 C1.70714286,7.12604167 2.10714286,4.35 2.50714286,1.575 C2.63095238,0.714583333 3.31785714,0 4.30714286,0 L4.30714286,0 L4.30714286,0 Z" id="Fill-113"></path>
            </g>
        </g>
    </g>
</svg>