<?xml version="1.0" encoding="UTF-8" standalone="no"?>
<svg width="21px" height="24px" viewBox="0 0 21 24" version="1.1" xmlns="http://www.w3.org/2000/svg" xmlns:xlink="http://www.w3.org/1999/xlink">
    <!-- Generator: Sketch 3.8.3 (29802) - http://www.bohemiancoding.com/sketch -->
    <title>Fill 113</title>
    <desc>Created with Sketch.</desc>
    <defs></defs>
    <g id="Page-1" stroke="none" stroke-width="1" fill="none" fill-rule="evenodd">
        <path d="M2.575,11.376 L2.575,13.61 L6.103,13.61 L6.103,11.376 L2.575,11.376 L2.575,11.376 Z M13.196,11.376 L13.196,13.61 L16.725,13.61 L16.725,11.376 L13.196,11.376 L13.196,11.376 Z M3.684,1.8 C3.444,4.176 3.204,6.553 2.964,8.929 C7.712,10.847 12.268,10.8 16.646,8.929 C16.381,6.553 16.117,4.176 15.853,1.8 L3.684,1.8 L3.684,1.8 Z M14.803,20.867 L5.503,20.867 L5.285,21.783 L15.021,21.783 L14.803,20.867 L14.803,20.867 Z M15.182,22.455 L5.125,22.455 L4.797,23.832 L15.51,23.832 L15.182,22.455 L15.182,22.455 Z M5.743,19.868 L5.675,20.15 L14.632,20.15 L14.564,19.868 L5.743,19.868 L5.743,19.868 Z M3.618,0 L15.841,0 C16.672,0 17.252,0.686 17.353,1.512 C17.695,4.308 18.038,7.104 18.38,9.902 L18.38,16.705 C18.38,17.522 17.726,18.193 16.915,18.217 L16.915,19.586 L20.12,23.982 L16.915,23.982 L15.313,19.586 L15.313,18.217 L4.807,18.217 L4.807,19.586 L3.204,23.982 L0,23.982 L3.204,19.586 L3.204,18.217 L2.611,18.217 C1.779,18.217 1.098,17.537 1.098,16.705 L1.098,9.504 C1.434,6.841 1.77,4.176 2.106,1.512 C2.21,0.686 2.787,0 3.618,0 L3.618,0 Z" id="Fill-113" fill="#1A1918"></path>
    </g>
</svg>