<?xml version="1.0" encoding="UTF-8" standalone="no"?>
<svg width="27px" height="27px" viewBox="0 0 27 27" version="1.1" xmlns="http://www.w3.org/2000/svg" xmlns:xlink="http://www.w3.org/1999/xlink">
    <!-- Generator: Sketch 3.8.3 (29802) - http://www.bohemiancoding.com/sketch -->
    <title>train</title>
    <desc>Created with Sketch.</desc>
    <defs></defs>
    <g id="Page-1" stroke="none" stroke-width="1" fill="none" fill-rule="evenodd">
        <g id="train" transform="translate(1.000000, 1.000000)">
            <path d="M7.29761905,17.8 L9.75079365,17.8 L7.71587302,20.2208333 L4.15634921,20.2208333 L7.29761905,17.8 L7.29761905,17.8 L7.29761905,17.8 Z M7.16031746,11.7729167 L17.6531746,11.7729167 L17.6531746,7.72222222 L16.615873,6.48194444 L8.30238095,6.48194444 L7.16031746,7.81666667 L7.16031746,11.7729167 L7.16031746,11.7729167 L7.16031746,11.7729167 Z M16.618254,13.1965278 C16.0142857,13.1965278 15.5246032,13.625 15.5246032,14.1534722 C15.5246032,14.6819444 16.0142857,15.1097222 16.618254,15.1097222 C17.2222222,15.1097222 17.7119048,14.6819444 17.7119048,14.1534722 C17.7119048,13.625 17.2222222,13.1965278 16.618254,13.1965278 L16.618254,13.1965278 L16.618254,13.1965278 Z M8.04047619,13.1965278 C7.43650794,13.1965278 6.9468254,13.625 6.9468254,14.1534722 C6.9468254,14.6819444 7.43650794,15.1097222 8.04047619,15.1097222 C8.64444444,15.1097222 9.13333333,14.6819444 9.13333333,14.1534722 C9.13333333,13.625 8.64444444,13.1965278 8.04047619,13.1965278 L8.04047619,13.1965278 L8.04047619,13.1965278 Z M9.68174603,4.03958333 L15.4880952,4.03958333 L15.4880952,5.08888889 L17.4190476,5.08888889 L19.2460317,7.27152778 L19.2460317,17.0951389 L5.56746032,17.0951389 L5.56746032,7.58958333 L5.56746032,7.3625 L5.72857143,7.17291667 L7.51269841,5.08888889 L9.68174603,5.08888889 L9.68174603,4.03958333 L9.68174603,4.03958333 L9.68174603,4.03958333 Z M17.4968254,17.8 L15.1571429,17.8 L17.2492063,20.2208333 L20.6373016,20.2208333 L17.4968254,17.8 L17.4968254,17.8 L17.4968254,17.8 Z" id="Fill-255" fill="#1A1918"></path>
            <circle id="Oval-1" stroke="#000000" cx="12.5" cy="12.5" r="12.5"></circle>
        </g>
    </g>
</svg>